<?xml version="1.0" encoding="UTF-8"?>
<svg id="Warstwa_1" data-name="Warstwa 1" xmlns="http://www.w3.org/2000/svg" viewBox="0 0 460.75 130.06">
  <defs>
    <style>
      .cls-1 {
        fill: #fff;
      }

      .cls-2 {
        fill: #010101;
      }
    </style>
  </defs>
  <path class="cls-1" d="M182.9,0h-1.7c-49.19,0-98.39,0-147.58,0-.8,0-1.59,0-2.39,.03-4.85,.15-9.42,1.36-13.72,3.58C7.63,8.72,.03,19.42,.01,32.65c-.02,21.58-.01,43.15,0,64.73,0,2.58,.27,5.14,.86,7.65,2.61,11.13,10.79,19.54,20.79,23.1,3.83,1.37,7.79,1.92,11.85,1.92,20.03-.01,40.07,0,60.1,0,11.61,0,23.22,0,34.82,0,.5,0,1-.03,1.53-.04,.04-.27,.1-.45,.1-.62,0-26.77-.02-53.54-.04-80.32,0-.08-.08-.16-.18-.34h-1.46c-25.98,0-51.95,0-77.93,0-.28,0-.56-.02-.84,0-.26,.02-.52,.09-.83,.14,0,1.61,0,3.15,0,4.69v18.39c0,1.54-.01,3.09,0,4.63,.02,1.53-.08,3.06,.08,4.67,.6,0,1.11,0,1.61,0h22.75c7.58,0,15.17,0,22.75,0,.5,0,1.01-.08,1.48,.09,.19,1.47,.16,14.95-.03,16.12-.48,.01-.98,.04-1.49,.04-19.42,0-38.85,0-58.27,0-.37,0-.75,.01-1.12,0-2.12-.12-3.78-1.71-3.98-3.83-.03-.37-.02-.75-.02-1.12,0-18.35,0-36.7,0-55.04,0-.37-.02-.75,.01-1.12,.19-2.37,2.05-3.76,3.79-3.85,.51-.03,1.03-.03,1.54-.03,36.88,0,73.77,0,110.65,0,.33,0,.66-.01,.98,0,.26,.02,.52,.07,.88,.12,0,.63,0,1.18,0,1.74,0,31.22,0,62.44,0,93.66,0,.37,0,.75,0,1.12,0,.27,.05,.53,.07,.75,.18,.07,.27,.13,.35,.13,10.58,0,21.15,0,31.73-.01,.05,0,.1-.01,.14-.03,.04-.02,.06-.06,.16-.17,.01-.1,.07-.28,.07-.46,0-43.05,0-86.11,0-129.37Zm207.11,81.28c.02,.47,.05,.8,.05,1.12,0,3.51,0,7.02,0,10.53,0,.23,0,.47,0,.7,.01,1.71-1.27,3.62-3.72,3.86-.51,.05-1.03,.02-1.54,.02-31.5,0-63,0-94.49,0-.28,0-.56,0-.84,0-.27-.01-.54-.04-.89-.07,0-.62-.02-1.17-.02-1.73,0-20.92,0-41.84,0-62.76,0-3.05-.29-6.08-1.07-9.03-2.41-9.06-7.66-15.91-16-20.3-3.86-2.03-8-3.1-12.33-3.51-.51-.05-1.03-.06-1.54-.07-.5,0-1,.01-1.54,.02-.02,.28-.05,.46-.05,.64,0,43.01,.02,86.02,.03,129.03,0,.05,.01,.1,.03,.13,.02,.04,.07,.06,.23,.19h1.53c43.62,0,87.24,0,130.86,0,.7,0,1.41,.04,2.11-.03,1.77-.16,3.56-.22,5.3-.58,9.17-1.87,16.32-6.77,21.41-14.61,3.42-5.27,5.09-11.09,5.09-17.39,0-15.77,0-31.54,0-47.32,0-.19,.01-.38,0-.56-.02-.26-.07-.52-.09-.72-.15-.07-.19-.1-.23-.11-.04-.01-.09-.01-.14-.01-26.68,0-53.35,0-80.03-.01-.14,0-.28-.01-.42-.02-.04,0-.09-.01-.13-.04-.04-.02-.07-.07-.15-.16,0-.12-.04-.3-.04-.48,0-3.74,0-7.49,0-11.23,0-.19,0-.37,.02-.56,.14-1.93,1.52-3.41,3.45-3.66,.6-.08,1.21-.07,1.82-.07,24.62,0,49.24,0,73.85,0,.42,0,.84,.02,1.26,0,.26-.01,.52-.08,.83-.14V8.16c0-1.36,.02-2.71,0-4.07-.02-1.34,.11-2.69-.1-4.08h-1.46c-26.44,0-52.89,0-79.33,0-2.25,0-4.48,.16-6.7,.58-11.16,2.11-20.36,9.91-24.21,20.57-1.38,3.82-1.99,7.77-1.99,11.83,.02,13.71,0,27.43,0,41.14,0,2.11,0,4.21,0,6.32,0,.26,.08,.52,.13,.83h81.06Zm-154.41,48.69c.05-.18,.12-.31,.12-.44,0-43.05,0-86.09-.01-129.14,0-.08-.08-.16-.15-.31-.28-.02-.6-.07-.92-.07-10.2,0-20.4,0-30.6,0-.26,0-.52,.05-.85,.09,0,.6,0,1.11,0,1.61,.01,42.67,.02,85.34,.04,128.02,0,.05,.01,.1,.03,.13,.02,.04,.07,.06,.23,.19,10.44,0,21.01,0,31.57,0,.18,0,.35-.05,.53-.08Z"/>
  <path class="cls-2" d="M182.9,0c0,43.26,0,86.31,0,129.37,0,.18-.05,.36-.07,.46-.1,.1-.12,.15-.16,.17-.04,.02-.09,.03-.14,.03-10.58,0-21.15,.01-31.73,.01-.08,0-.17-.06-.35-.13-.02-.22-.06-.48-.07-.75-.01-.37,0-.75,0-1.12,0-31.22,0-62.44,0-93.66,0-.55,0-1.11,0-1.74-.35-.05-.61-.11-.88-.12-.33-.02-.66,0-.98,0-36.88,0-73.77,0-110.65,0-.51,0-1.03,0-1.54,.03-1.74,.09-3.59,1.47-3.79,3.85-.03,.37-.01,.75-.01,1.12,0,18.35,0,36.7,0,55.04,0,.37-.02,.75,.02,1.12,.19,2.11,1.85,3.71,3.98,3.83,.37,.02,.75,0,1.12,0,19.42,0,38.85,0,58.27,0,.5,0,1.01-.03,1.49-.04,.2-1.16,.22-14.64,.03-16.12-.46-.17-.98-.09-1.48-.09-7.58,0-15.17,0-22.75,0h-22.75c-.51,0-1.02,0-1.61,0-.16-1.61-.06-3.14-.08-4.67-.02-1.54,0-3.09,0-4.63v-18.39c0-1.54,0-3.09,0-4.69,.31-.05,.57-.12,.83-.14,.28-.02,.56,0,.84,0,25.98,0,51.95,0,77.93,0h1.46c.1,.18,.18,.26,.18,.34,.02,26.77,.03,53.54,.04,80.32,0,.18-.06,.36-.1,.62-.53,.02-1.03,.04-1.53,.04-11.61,0-23.22,0-34.82,0-20.03,0-40.07,0-60.1,0-4.06,0-8.02-.55-11.85-1.92-9.99-3.57-18.18-11.97-20.79-23.1C.28,102.51,.01,99.96,.01,97.38c-.01-21.58-.02-43.15,0-64.73C.03,19.42,7.63,8.72,17.51,3.61,21.81,1.39,26.39,.18,31.23,.03c.8-.02,1.59-.03,2.39-.03,49.19,0,98.39,0,147.58,0h1.7Z"/>
  <path class="cls-2" d="M390.01,81.28h-81.06c-.05-.31-.13-.57-.13-.83-.01-2.11,0-4.21,0-6.32,0-13.71,.01-27.43,0-41.14,0-4.06,.61-8.01,1.99-11.83,3.85-10.66,13.05-18.47,24.21-20.57C337.22,.16,339.45,0,341.71,0c26.44,0,52.89,0,79.33,0h1.46c.2,1.4,.08,2.75,.1,4.08,.02,1.36,0,2.71,0,4.07v24.21c-.31,.05-.57,.12-.83,.14-.42,.02-.84,0-1.26,0-24.62,0-49.24,0-73.85,0-.61,0-1.22,0-1.82,.07-1.93,.25-3.31,1.72-3.45,3.66-.01,.19-.02,.37-.02,.56,0,3.74,0,7.49,0,11.23,0,.18,.03,.36,.04,.48,.09,.09,.11,.13,.15,.16,.04,.02,.08,.03,.13,.04,.14,.01,.28,.02,.42,.02,26.68,0,53.35,0,80.03,.01,.05,0,.09,0,.14,.01,.04,.01,.08,.04,.23,.11,.03,.19,.07,.45,.09,.72,.02,.19,0,.37,0,.56,0,15.77,0,31.54,0,47.32,0,6.3-1.68,12.11-5.09,17.39-5.08,7.85-12.24,12.74-21.41,14.61-1.73,.35-3.53,.42-5.3,.58-.7,.06-1.4,.03-2.11,.03-43.62,0-87.24,0-130.86,0h-1.53c-.16-.13-.21-.15-.23-.19-.02-.04-.03-.09-.03-.13-.01-43.01-.02-86.02-.03-129.03,0-.18,.03-.36,.05-.64,.54,0,1.04-.03,1.54-.02,.51,0,1.03,.02,1.54,.07,4.33,.41,8.47,1.48,12.33,3.51,8.34,4.39,13.59,11.24,16,20.3,.79,2.95,1.07,5.98,1.07,9.03,0,20.92,0,41.84,0,62.76,0,.55,.01,1.1,.02,1.73,.36,.03,.63,.06,.89,.07,.28,.01,.56,0,.84,0,31.5,0,63,0,94.49,0,.51,0,1.03,.03,1.54-.02,2.46-.24,3.73-2.15,3.72-3.86,0-.23,0-.47,0-.7,0-3.51,0-7.02,0-10.53,0-.32-.03-.65-.05-1.12Z"/>
  <path class="cls-2" d="M235.6,129.97c-.18,.03-.36,.08-.53,.08-10.57,0-21.13,0-31.57,0-.16-.13-.21-.15-.23-.19-.02-.04-.03-.09-.03-.13-.01-42.67-.03-85.34-.04-128.02,0-.51,0-1.02,0-1.61,.32-.03,.58-.09,.85-.09,10.2,0,20.4,0,30.6,0,.32,0,.64,.05,.92,.07,.07,.15,.15,.23,.15,.31,0,43.05,.01,86.09,.01,129.14,0,.13-.07,.26-.12,.44Z"/>
  <path d="M452.95,99.62c2.44,1.41,4.35,3.34,5.73,5.81,1.38,2.47,2.07,5.24,2.07,8.31s-.69,5.86-2.07,8.35c-1.38,2.49-3.29,4.44-5.73,5.85-2.44,1.41-5.2,2.11-8.27,2.11s-5.92-.7-8.35-2.11c-2.44-1.4-4.35-3.35-5.73-5.85-1.38-2.49-2.07-5.28-2.07-8.35s.69-5.85,2.07-8.31c1.38-2.47,3.29-4.4,5.73-5.81,2.44-1.4,5.22-2.11,8.35-2.11s5.83,.7,8.27,2.11Zm.99,23.59c2.36-2.44,3.54-5.6,3.54-9.47s-1.18-7.03-3.54-9.47c-2.36-2.44-5.45-3.66-9.27-3.66s-6.96,1.22-9.27,3.66c-2.31,2.44-3.46,5.6-3.46,9.47s1.15,7.03,3.46,9.47c2.31,2.44,5.4,3.66,9.27,3.66s6.91-1.22,9.27-3.66Zm-3.1-9.59c-.66,.88-1.58,1.5-2.75,1.87l4.46,6.6-5.01,.08-3.82-6.36h-1.35v6.36h-4.14v-17.11h7.64c1.8,0,3.25,.48,4.34,1.43,1.09,.95,1.63,2.25,1.63,3.9,0,1.27-.33,2.35-.99,3.22Zm-8.47-1.23h3.26c.58,0,1.07-.16,1.47-.48s.6-.77,.6-1.35-.2-1.02-.6-1.31c-.4-.29-.89-.44-1.47-.44h-3.26v3.58Z"/>
</svg>