<svg xmlns="http://www.w3.org/2000/svg" viewBox="0 0 220.98 220.98"><g id="Warstwa_2" data-name="Warstwa 2"><g id="Warstwa_1-2" data-name="Warstwa 1"><path d="M27.19,0H193.77a10.12,10.12,0,0,0,1.39.43,30.89,30.89,0,0,1,25.77,30.21q.09,79.82,0,159.63a30.76,30.76,0,0,1-30.66,30.66q-79.82.1-159.63,0A30.9,30.9,0,0,1,1,197.9c-.36-1.37-.68-2.75-1-4.13V27.19A8.24,8.24,0,0,0,.41,26C2.4,15.24,8.33,7.42,18.26,2.82,21.07,1.52,24.2.92,27.19,0Zm180,110.7V32.39c0-11.42-7.15-18.58-18.57-18.58H32.39C21,13.81,13.81,21,13.81,32.37v156.2c0,11.43,7.14,18.58,18.56,18.58h156.2c11.41,0,18.58-7.16,18.58-18.57Z"/><path d="M82.87,128.18l-15.63,1.09c-2.51.18-5,.43-7.52.54a6.92,6.92,0,0,1-7.28-6.45,6.74,6.74,0,0,1,6.37-7.28q20.53-1.53,41.07-2.92c5.16-.35,8.28,2.85,7.92,8.09q-1.36,20.33-2.89,40.64c-.31,4.22-3.51,7-7.46,6.62s-6.58-3.66-6.27-7.84q.75-10.32,1.49-20.64c0-.49,0-1,0-1.86-.77.72-1.34,1.21-1.86,1.73Q71,159.73,51.18,179.56c-1.91,1.91-4.07,2.95-6.79,2.37a6.85,6.85,0,0,1-3.9-11.14,24.28,24.28,0,0,1,1.79-1.87l39-39C81.75,129.45,82.14,129,82.87,128.18Z"/><path d="M138.6,92.69c7.3-.52,14.61-1,21.9-1.56,5.11-.38,8.81,3.41,7.94,8.21a6.69,6.69,0,0,1-6.33,5.5c-7.52.58-15.05,1.11-22.58,1.64-6.23.45-12.47.92-18.71,1.29-3.84.22-6.74-1.92-7.5-5.41a9.22,9.22,0,0,1-.13-2.57q1.43-20.43,2.91-40.86a6.78,6.78,0,0,1,7.36-6.54,7,7,0,0,1,6.37,7.76c-.53,7.38-1.06,14.76-1.62,22.7.86-.81,1.41-1.29,1.92-1.81q19.76-19.74,39.5-39.51c2-2,4.25-3.16,7.15-2.46A6.85,6.85,0,0,1,180.62,50,22.08,22.08,0,0,1,179,51.71q-19.45,19.44-38.91,38.88A14.74,14.74,0,0,1,138.19,92Z"/></g></g></svg>