<?xml version="1.0" encoding="utf-8"?>
<!-- Generator: Adobe Illustrator 27.0.0, SVG Export Plug-In . SVG Version: 6.00 Build 0)  -->
<svg version="1.1" id="Warstwa_1" xmlns="http://www.w3.org/2000/svg" xmlns:xlink="http://www.w3.org/1999/xlink" x="0px" y="0px"
	 viewBox="0 0 225.4 225.4" style="enable-background:new 0 0 225.4 225.4;" xml:space="preserve">
<style type="text/css">
	.st0{fill:none;stroke:#000000;stroke-width:15;}
	.st1{fill:none;stroke:#000000;stroke-width:12;}
</style>
<path class="st0" d="M22.7,9H204c8.2,0,14.8,6.6,14.8,14.8v181.3c0,8.2-6.6,14.8-14.8,14.8H22.7c-8.2,0-14.8-6.6-14.8-14.8V23.8
	C7.9,15.6,14.6,9,22.7,9z"/>
<path class="st1" d="M78.9,83.8"/>
<path class="st1" d="M94.1,75.1"/>
<path class="st1" d="M78.9,145.8"/>
<g>
	<path d="M110.7,182c-2.2-0.5-4.4-0.7-6.5-1.4c-8.7-2.9-13-10.1-12.1-19.6c0.7-7.4,3.1-14.5,5-21.6c1.8-6.6,3.6-13.1,5.2-19.7
		c0.8-3.1,1.1-6.3,0.5-9.5c-0.5-2.7-2-4.3-4.7-4.9c-3.7-0.8-7.4-0.5-11,0.7c-1.3,0.4-2.6,0.8-4.1,1.3c0.6-2.5,1.2-4.9,1.8-7.2
		c0.1-0.3,0.5-0.6,0.8-0.8c6-2.3,12-4.8,18.3-6c6.3-1.1,12.5-1,18.4,1.9c6.2,3,9.4,9.5,9.1,16.3c-0.4,9.2-3.6,17.7-5.8,26.5
		c-1.5,5.8-3.1,11.5-4.5,17.3c-0.7,2.9-1.1,5.8-0.5,8.7c0.7,3.4,2.3,4.9,5.7,5.4c4.5,0.8,8.8-0.1,13-1.6c0.4-0.1,0.8-0.3,1.4-0.5
		c-0.6,2.5-1.2,4.9-1.8,7.3c-0.1,0.3-0.4,0.5-0.7,0.7c-4.8,1.8-9.5,3.6-14.3,5.2c-2.2,0.7-4.6,0.9-6.9,1.4
		C114.9,182,112.8,182,110.7,182z"/>
	<path d="M125.9,78.6c-7.3-0.3-12.7-3.3-15.7-9.9c-3.4-7.4,0.1-16.1,7.9-19.9c7.1-3.5,15.7-1.7,20.9,4.2c7,8.1,3.5,20.6-6.9,24.4
		c-0.9,0.3-1.8,0.6-2.8,0.8C128.1,78.4,127,78.5,125.9,78.6z"/>
</g>
</svg>
