<?xml version="1.0" encoding="utf-8"?>
<!-- Generator: Adobe Illustrator 27.0.0, SVG Export Plug-In . SVG Version: 6.00 Build 0)  -->
<svg version="1.1" id="Warstwa_1" xmlns="http://www.w3.org/2000/svg" xmlns:xlink="http://www.w3.org/1999/xlink" x="0px" y="0px"
	 viewBox="0 0 225.4 225.4" style="enable-background:new 0 0 225.4 225.4;" xml:space="preserve">
<style type="text/css">
	.st0{fill:none;stroke:#000000;stroke-width:15;}
	.st1{fill:none;stroke:#000000;stroke-width:12;}
	.st2{fill:#F5BA42;}
	.st3{fill:#E8573F;}
	.st4{fill:#D670AC;}
	.st5{fill:#957ADB;}
	.st6{fill:#8BC052;}
	.st7{fill:#DE4858;}
	.st8{fill:#37BB9A;}
	.st9{fill:#4A88DB;}
	.st10{fill:#FECD54;}
	.st11{fill:#FB6E51;}
	.st12{fill:#FCD272;}
	.st13{fill:#FCD374;}
	.st14{fill:#F8846E;}
	.st15{fill:#F6856F;}
	.st16{fill:#EB86BF;}
	.st17{fill:#E4606E;}
	.st18{fill:#E793C3;}
	.st19{fill:#E594C3;}
	.st20{fill:#AB91EB;}
	.st21{fill:#B7A2EC;}
	.st22{fill:#B9A4EC;}
	.st23{fill:#9FD368;}
	.st24{fill:#48CEAC;}
	.st25{fill:#AED881;}
	.st26{fill:#AFD883;}
	.st27{fill:#E7737F;}
	.st28{fill:#E76F7B;}
	.st29{fill:#66D3B8;}
	.st30{fill:#6BD4BA;}
	.st31{fill:#5D9BEB;}
	.st32{fill:#78ABEC;}
	.st33{fill:#7BADEC;}
	.st34{stroke:#000000;stroke-width:2;stroke-miterlimit:10;}
	.st35{fill:#FFFFFF;stroke:#000000;stroke-width:2;stroke-miterlimit:10;}
</style>
<path class="st0" d="M22.7,9H204c8.2,0,14.8,6.6,14.8,14.8v181.3c0,8.2-6.6,14.8-14.8,14.8H22.7c-8.2,0-14.8-6.6-14.8-14.8V23.8
	C7.9,15.6,14.6,9,22.7,9z"/>
<path class="st1" d="M78.9,83.8"/>
<path class="st1" d="M94.1,75.1"/>
<path class="st1" d="M78.9,145.8"/>
<g>
	<path class="st2" d="M167.3,58.7c5,4.7,9,10.2,12.4,16.1c6.4,11.2,9.7,23.3,10,36.2c0,0.5,0,1,0,1.5c-0.5,0.5-1.2,0.5-1.9,0.5
		c-7,0-13.9,0-20.9,0c-0.6,0-1.1,0-1.6-0.3c-0.4-0.3-0.5-0.8-0.6-1.3c0-1.2,0-2.3,0-3.5c0-0.4-0.1-0.8-0.2-1.2
		c-0.1-0.5-0.1-1-0.1-1.4c-0.9-5.3-2.5-10.4-4.7-15.3c-1.3-2.8-3.2-5.3-5-7.9c-1.4-2-3.2-3.8-4.5-5.9c0-0.1-0.1-0.3-0.1-0.5
		c0.1-0.7,0.6-1.1,1.1-1.6c4.8-4.8,9.6-9.6,14.5-14.5C166.2,59.2,166.5,58.5,167.3,58.7z"/>
	<path class="st3" d="M167.3,58.7c-2.1,2-4.2,4-6.2,6.1c-3.6,3.6-7.2,7.2-10.8,10.8c-1.4,0.1-2.2-0.8-3.1-1.6
		c-3.1-3-6.8-5.3-10.6-7.3c-3.8-2-8-3.4-12.2-4.2c-1.2-0.2-2.4-0.4-3.6-0.9c-0.5-0.1-1.1,0-1.6-0.1c-0.4-0.1-0.8-0.2-1.2-0.2
		c-1.2,0-2.3,0-3.5,0c-0.5,0-1-0.1-1.3-0.5c-0.4-0.7-0.3-1.5-0.3-2.2c0-6.6,0-13.2,0-19.9c0-0.8-0.1-1.6,0.5-2.3
		c13.8-0.1,26.6,3.4,38.4,10.4C157.6,50,162.8,53.9,167.3,58.7z"/>
	<path class="st4" d="M37.3,112.5c-0.1-10.5,2-20.6,6.2-30.2c3.7-8.6,8.8-16.2,15.4-22.9c0.2-0.3,0.5-0.5,0.8-0.7
		c0.6-0.2,0.9,0.2,1.2,0.5c5.3,5.3,10.6,10.6,15.9,15.9c0.1,0.1,0.2,0.3,0.3,0.5c0,0.2,0,0.3,0,0.5c-0.3,0.6-0.7,1.1-1.2,1.6
		c-7.1,7.6-11.4,16.5-13.1,26.7c0,0.3-0.1,0.6-0.2,0.9c-0.1,0.5,0,0.9-0.1,1.4c0,0.4-0.2,0.8-0.2,1.2c-0.1,1.3,0.1,2.7-0.1,4
		c-0.1,0.3-0.2,0.5-0.5,0.7c-0.6,0.3-1.2,0.3-1.8,0.3c-6.9,0-13.7,0-20.6,0C38.6,113,37.9,113.1,37.3,112.5z"/>
	<path class="st5" d="M37.3,112.5c8.2,0,16.4,0,24.5,0c0.1,0.1,0.1,0.1,0.2,0.2c0.2,0.3,0.2,0.6,0.2,1c0,1.1,0,2.2,0,3.3
		c0,0.5,0.1,1,0.2,1.4c0.1,0.5,0.1,0.9,0.1,1.4c0.8,5.1,2.2,10.1,4.5,14.8c2.2,4.4,4.7,8.6,8.2,12.2c0.7,0.7,1.5,1.4,1.6,2.5
		c0,0.7-0.6,1.2-1.1,1.6c-4.9,4.9-9.7,9.8-14.6,14.6c-0.4,0.4-0.7,1-1.5,0.8c-5.4-5.1-9.7-11.1-13.2-17.6c-5.2-9.6-8.2-19.8-9-30.6
		C37.4,116.3,37.2,114.4,37.3,112.5z"/>
	<path class="st6" d="M165.1,112.5c8.2,0,16.4,0,24.6,0c0.1,10.4-2,20.3-6,29.8c-3.7,8.7-8.9,16.5-15.6,23.3
		c-0.2,0.3-0.5,0.5-0.8,0.7c-0.7,0.2-1-0.4-1.4-0.8c-5-4.9-9.9-9.9-14.8-14.8c-0.4-0.4-0.8-0.8-0.9-1.4c0-0.2,0-0.3,0-0.5
		c0.3-0.8,0.8-1.4,1.4-2c4.2-4.5,7.3-9.7,9.6-15.4c1.5-3.8,2.5-7.8,3.2-11.8c0.1-0.5,0.1-0.9,0.1-1.4c0.1-0.4,0.2-0.8,0.2-1.2
		c0-1.2,0-2.3,0-3.5c0-0.3,0.1-0.7,0.2-1C165,112.6,165.1,112.6,165.1,112.5z"/>
	<path class="st7" d="M76.9,75.7C71.6,70.4,66.3,65.2,61,59.9c-0.4-0.4-0.9-0.8-1.4-1.2c4.1-4.4,8.9-8,14-11.2
		c11.9-7.3,24.8-11,38.8-11.3c0.4,0,0.7,0,1.1,0c0,8.2,0,16.4,0,24.5c-0.1,0.1-0.1,0.1-0.2,0.2c-0.7,0.3-1.4,0.3-2.1,0.3
		c-0.8-0.1-1.5-0.1-2.3-0.1c-0.5,0.1-0.9,0.2-1.4,0.2c-0.5,0-0.9,0-1.4,0.1c-4.9,0.9-9.7,2.1-14.2,4.3c-4.6,2.2-9,4.8-12.6,8.4
		C78.8,75,78,75.7,76.9,75.7z"/>
	<path class="st8" d="M150.3,149.5c5.6,5.7,11.2,11.4,17,16.9c-4.9,5.2-10.6,9.3-16.7,12.8c-11.2,6.3-23.3,9.4-36.2,9.6
		c-0.3,0-0.6,0-0.9,0c-0.5-0.5-0.5-1.2-0.5-1.9c0-7,0-13.9,0-20.9c0-0.6,0-1.1,0.3-1.6c0.3-0.4,0.8-0.5,1.3-0.6c1.2,0,2.3,0,3.5,0
		c0.4,0,0.8-0.1,1.2-0.2c0.5-0.1,0.9-0.1,1.4-0.1c4.5-0.7,8.9-2,13.1-3.7c5.2-2.1,9.7-5.3,14-9C148.5,150.2,149.1,149.1,150.3,149.5
		z"/>
	<path class="st9" d="M113.5,164.2c0,8.2,0,16.4,0,24.5c-8.6,0.1-16.9-1.3-25-4.1c-10.5-3.7-19.8-9.4-27.9-17.1
		c-0.4-0.4-0.7-0.7-1-1.1c1.6-1.6,3.3-3.2,4.9-4.8c4-4,8-8.1,12-12.2c0.1-0.1,0.3-0.2,0.4-0.2c2,0.9,3.4,2.6,5.1,3.9
		c6.8,5.3,14.6,8.6,23.1,10c0.4,0.1,0.7,0.1,1.1,0.2c0.5,0.1,0.9,0.1,1.4,0.1c0.4,0.1,0.8,0.2,1.2,0.2c1.1,0,2.2,0,3.3,0
		c0.4,0,0.9,0,1.3,0.2C113.4,164.1,113.5,164.1,113.5,164.2z"/>
	<path class="st10" d="M150.4,75.9c2.7,3.3,5.3,6.6,7.6,10.1c1.5,2.2,2.6,4.7,3.5,7.2c1.5,3.9,2.5,7.9,3.3,12c-0.2,0.5-0.2,1,0,1.5
		c0.1,0.3,0.2,0.6,0.3,0.9c-0.2,1.2-0.2,2.4,0,3.7c0,0.4,0,0.8,0,1.2c0,0,0,0.1,0,0.1c-0.5,0.4-1,0.4-1.6,0.4c-7.2,0-14.4,0-21.7,0
		c-0.3,0-0.6,0-0.9-0.1c-0.7-0.2-0.8-0.7-0.8-1.3c-0.4-6.6-2.8-12.4-7.3-17.3c-0.2-0.2-0.4-0.5-0.5-0.8c0-0.7,0.6-1.1,1-1.5
		c5-5.1,10.1-10.1,15.2-15.2C149.1,76.3,149.5,75.6,150.4,75.9z"/>
	<path class="st11" d="M150.4,75.9c-0.7,0.1-1,0.7-1.4,1.1c-5.5,5.4-10.9,10.8-16.3,16.2c-0.8,0.1-1.2-0.5-1.7-0.9
		c-4.7-4-10.1-6-16.2-6.5c-0.6,0-1.3,0-1.5-0.8c-0.2-0.7-0.2-1.4-0.2-2.1c0-6.5,0-13.1,0-19.6c0-0.9-0.1-1.8,0.5-2.5c0,0,0,0,0,0
		c0.4,0,0.8,0,1.2,0c1.2,0.2,2.4,0.2,3.7,0c0.3,0.1,0.6,0.2,1,0.3c0.6,0.2,1.2,0.2,1.8,0c0.8,0.7,1.8,0.7,2.7,0.9
		c3.6,0.7,6.9,1.9,10.3,3.2c3.9,1.5,7.1,4.1,10.7,6.2c0.8,0.5,1.7,1.3,2.4,2.1c0.8,0.9,2,1.5,3.1,2
		C150.4,75.7,150.4,75.8,150.4,75.9z"/>
	<path class="st12" d="M165.1,111.3c-0.5-1.2-0.5-2.4,0-3.7C165.1,108.9,165.1,110.1,165.1,111.3z"/>
	<path class="st13" d="M164.8,106.7c-0.4-0.5-0.4-1,0-1.5C164.8,105.7,164.8,106.2,164.8,106.7z"/>
	<path class="st14" d="M118.4,60.9c-1.2,0.5-2.4,0.5-3.7,0C116,60.9,117.2,60.9,118.4,60.9z"/>
	<path class="st15" d="M121.2,61.2c-0.6,0.4-1.2,0.5-1.8,0C120,61.2,120.6,61.2,121.2,61.2z"/>
	<path class="st16" d="M61.9,112.5c0-0.2,0-0.4,0-0.6c0.3-1.4,0.2-2.9,0-4.3c0.1-0.3,0.2-0.6,0.3-0.9c0.2-0.5,0.2-1,0-1.5
		c0.7-2.9,1.1-5.8,2.1-8.6c2.5-7.2,6.1-13.8,11.5-19.3c0.4-0.4,0.6-1.1,1.2-1.4c0.7-0.2,1,0.4,1.4,0.7c5.2,5.1,10.3,10.3,15.5,15.5
		c0.4,0.4,0.8,0.7,0.8,1.3c-0.6,1.3-1.7,2.3-2.6,3.4c-3.2,4.2-4.7,9-5.1,14.2c-0.1,0.7,0.1,1.5-0.8,1.8c-0.7,0.2-1.4,0.2-2.1,0.2
		c-6.5,0-13.1,0-19.6,0C63.5,113,62.6,113.2,61.9,112.5L61.9,112.5z"/>
	<path class="st17" d="M94.5,93.2c-4.4-4.3-8.8-8.7-13.2-13c-1.5-1.4-2.9-2.8-4.4-4.3c0-0.1,0-0.2,0-0.3c2.7-1.5,4.5-3.9,7.1-5.6
		c4-2.5,8.1-4.9,12.6-6.4c2.5-0.8,5.1-1.5,7.7-2c0.6-0.1,1.3-0.3,1.9-0.4c0.5,0.2,1,0.2,1.5,0c0.4-0.1,0.8-0.2,1.3-0.3
		c0.8,0.4,1.6-0.1,2.4,0.3c0.7-0.4,1.4-0.3,2.2-0.3c0,8.2,0,16.4,0,24.5c-1.1,0.8-2.4,0.5-3.5,0.7c-5,0.7-9.5,2.6-13.4,5.9
		C95.9,92.6,95.4,93.2,94.5,93.2z"/>
	<path class="st18" d="M61.9,107.6c0.5,1.4,0.5,2.9,0,4.3C61.9,110.5,61.9,109.1,61.9,107.6z"/>
	<path class="st19" d="M62.2,105.2c0.4,0.5,0.4,1,0,1.5C62.2,106.2,62.2,105.7,62.2,105.2z"/>
	<path class="st20" d="M61.9,112.6c8.2,0,16.4,0,24.6,0c0.8,0.9,0.5,2.1,0.6,3.1c0.6,5.6,3,10.4,6.6,14.7c0.4,0.4,0.8,0.8,0.9,1.4
		c0,0.7-0.5,1-0.9,1.4c-5.1,5.1-10.3,10.3-15.4,15.4c-0.4,0.4-0.8,0.8-1.4,1c-0.1,0-0.2,0-0.3,0c-0.5-1.9-2.3-3-3.4-4.4
		c-5.7-7.2-9.4-15.3-10.8-24.4c0-0.2-0.2-0.5-0.3-0.7c0.2-0.5,0.2-1,0-1.5c-0.2-0.4-0.4-0.8-0.3-1.3c0.2-1.2,0.2-2.4,0-3.7
		C61.9,113.2,61.9,112.9,61.9,112.6z"/>
	<path class="st21" d="M61.9,113.5c0.5,1.2,0.5,2.4,0,3.7C61.9,115.9,61.9,114.7,61.9,113.5z"/>
	<path class="st22" d="M62.2,118.4c0.4,0.5,0.4,1,0,1.5C62.2,119.4,62.2,118.9,62.2,118.4z"/>
	<path class="st23" d="M140.6,112.5c8.2,0,16.4,0,24.6,0c0,0.3,0,0.6,0,0.9c-0.2,1.3-0.2,2.6,0,4c-0.1,0.3-0.2,0.6-0.3,1
		c-0.2,0.5-0.2,1,0,1.5c-0.6,2.9-1.2,5.8-2.2,8.7c-1,3-2.2,5.8-3.7,8.6c-2.3,4.4-5.6,8.1-8.6,12c-0.7,0.3-1.1-0.3-1.6-0.7
		c-5.2-5.2-10.4-10.4-15.6-15.6c-0.3-0.3-0.7-0.6-0.7-1.1c0.8-1.6,2.2-2.8,3.2-4.3c2.8-4,4.1-8.5,4.5-13.3
		C140.2,113.6,140.1,113,140.6,112.5z"/>
	<path class="st24" d="M132.6,131.8c5.4,5.4,10.9,10.8,16.3,16.2c0.4,0.4,0.8,1,1.4,1.1c0,0.1,0,0.2,0,0.3c-1.5,0.7-2.7,1.9-4,3
		c-4.6,3.9-9.7,6.8-15.5,8.8c-3.3,1.1-6.6,1.8-10,2.6c-0.5-0.2-1-0.2-1.5,0c-0.3,0.1-0.6,0.2-1,0.3c-1.2-0.2-2.4-0.2-3.7,0
		c-0.4,0-0.8,0-1.2,0c0,0-0.1,0-0.1,0c-0.4-0.5-0.4-1-0.4-1.6c0-7.2,0-14.5,0-21.7c0-0.3,0-0.6,0.1-0.9c0.2-0.7,0.9-0.8,1.5-0.8
		c6.2-0.4,11.7-2.5,16.4-6.6C131.5,132.2,131.9,131.7,132.6,131.8z"/>
	<path class="st25" d="M165.1,117.4c-0.5-1.3-0.5-2.6,0-4C165.1,114.8,165.1,116.1,165.1,117.4z"/>
	<path class="st26" d="M164.8,119.9c-0.4-0.5-0.4-1,0-1.5C164.8,118.9,164.8,119.4,164.8,119.9z"/>
	<path class="st27" d="M111.3,61.2c-0.8-0.1-1.7,0.3-2.4-0.3C109.7,61,110.6,60.6,111.3,61.2z"/>
	<path class="st28" d="M107.6,61.2c-0.5,0.4-1,0.4-1.5,0C106.6,61.2,107.1,61.2,107.6,61.2z"/>
	<path class="st29" d="M114.7,164.2c1.2-0.5,2.4-0.5,3.7,0C117.2,164.2,116,164.2,114.7,164.2z"/>
	<path class="st30" d="M119.4,163.9c0.5-0.4,1-0.4,1.5,0C120.4,163.9,119.9,163.9,119.4,163.9z"/>
	<path class="st31" d="M113.5,139.7c0,8.2,0,16.4,0,24.5c-0.4,0-0.8,0-1.2,0c-1.2-0.2-2.4-0.2-3.7,0c-0.3-0.1-0.6-0.2-1-0.3
		c-0.5-0.2-1-0.2-1.5,0c-3.3-0.7-6.6-1.3-9.7-2.5c-6.5-2.3-12.4-5.7-17.5-10.4c-0.6-0.6-1.4-1.1-2-1.6c5.8-5.9,11.6-11.8,17.5-17.5
		c0.8-0.1,1.2,0.5,1.7,0.9c4.7,3.9,10.1,6,16.1,6.4C112.7,139.2,113.2,139.2,113.5,139.7z"/>
	<path class="st32" d="M108.6,164.2c1.2-0.5,2.4-0.5,3.7,0C111,164.2,109.8,164.2,108.6,164.2z"/>
	<path class="st33" d="M106.1,163.9c0.5-0.4,1-0.4,1.5,0C107.1,163.9,106.6,163.9,106.1,163.9z"/>
</g>
<g>
	<path class="st34" d="M135.3,154.4c-0.8-0.6-1.8-1.2-2.5-1.9c-7.1-7-14.1-14.1-21.2-21.1c-0.2-0.2-0.4-0.5-0.5-0.8
		c-8.1,6.2-17,8.5-26.8,6.4c-8.2-1.8-14.7-6.2-19.3-13.1C56,110.9,58.1,94,69,83.5c12.1-11.8,30.2-11.8,42.3-1.7
		c12.7,10.5,15.8,29.8,4.4,44.2c0.2,0.2,0.4,0.4,0.6,0.6c7,7,14.1,14.1,21.1,21.2c0.7,0.8,1.3,1.7,1.9,2.6c0,0.5,0,0.9,0,1.4
		c-0.4,1.3-1.3,2.2-2.7,2.7C136.2,154.4,135.7,154.4,135.3,154.4z M116,106.1c-0.1-13.8-11.3-25-25-24.9c-13.8,0-25,11.3-24.9,25
		c0.1,13.8,11.1,25,25,24.9C105.1,131.1,115.9,119.8,116,106.1z"/>
	<path class="st35" d="M136.7,154.4c1.3-0.4,2.2-1.3,2.7-2.7c0,0.9,0,1.8,0,2.7C138.5,154.4,137.6,154.4,136.7,154.4z"/>
</g>
</svg>
