<?xml version="1.0" encoding="utf-8"?>
<!-- Generator: Adobe Illustrator 27.0.0, SVG Export Plug-In . SVG Version: 6.00 Build 0)  -->
<svg version="1.1" id="Warstwa_1" xmlns="http://www.w3.org/2000/svg" xmlns:xlink="http://www.w3.org/1999/xlink" x="0px" y="0px"
	 viewBox="0 0 225.4 225.4" style="enable-background:new 0 0 225.4 225.4;" xml:space="preserve">
<style type="text/css">
	.st0{fill:#FF0000;}
	.st1{fill:none;stroke:#000000;stroke-width:15;}
	.st2{fill:none;stroke:#000000;stroke-width:12;}
</style>
<path class="st0" d="M137.1,106L52.3,57.1c-6.7-3.9-15.2,1-15.2,8.7v97.9c0,7.8,8.4,12.6,15.2,8.7l84.8-48.9
	C143.8,119.6,143.8,109.9,137.1,106z"/>
<path class="st1" d="M22.7,9H204c8.2,0,14.8,6.6,14.8,14.8v181.3c0,8.2-6.6,14.8-14.8,14.8H22.7c-8.2,0-14.8-6.6-14.8-14.8V23.8
	C7.9,15.6,14.6,9,22.7,9z"/>
<path class="st2" d="M78.9,83.8"/>
<path class="st2" d="M94.1,75.1"/>
<path class="st2" d="M78.9,145.8"/>
<rect x="158.9" y="56" width="16.9" height="120.1"/>
</svg>
