<?xml version="1.0" encoding="utf-8"?>
<!-- Generator: Adobe Illustrator 27.0.0, SVG Export Plug-In . SVG Version: 6.00 Build 0)  -->
<svg version="1.1" id="Warstwa_1" xmlns="http://www.w3.org/2000/svg" xmlns:xlink="http://www.w3.org/1999/xlink" x="0px" y="0px"
	 viewBox="0 0 225.4 225.4" style="enable-background:new 0 0 225.4 225.4;" xml:space="preserve">
<style type="text/css">
	.st0{fill:none;stroke:#000000;stroke-width:15;}
	.st1{fill:none;stroke:#000000;stroke-width:12;}
</style>
<path class="st0" d="M22.7,9H204c8.2,0,14.8,6.6,14.8,14.8v181.3c0,8.2-6.6,14.8-14.8,14.8H22.7c-8.2,0-14.8-6.6-14.8-14.8V23.8
	C7.9,15.6,14.6,9,22.7,9z"/>
<path class="st1" d="M78.9,83.8"/>
<path class="st1" d="M94.1,75.1"/>
<path class="st1" d="M78.9,145.8"/>
<g>
	<path d="M158,141.8c1.6-3.6,3.5-7.2,4.7-10.9C172.9,100.1,153,67.8,121,63c-28.9-4.4-56.1,16.5-59.3,45.5
		c-3.1,28.1,16.1,53.1,44.1,57.4c2.5,0.4,5.1,0.4,7.6,0.6c4.5,0.3,7.5,3.5,7.3,7.9c-0.2,4.1-3.4,7.1-7.8,7c-2.4,0-4.9-0.1-7.3-0.4
		c-28.4-4.3-47.8-20-56.4-47.4C37.5,96.3,61.6,56.5,99.8,48.9c37.1-7.4,72.4,16.4,79.2,53.7c3.2,17.2-0.2,33.2-9.5,48
		c-0.4,0.6-0.7,1.2-1.3,2c1-0.3,1.7-0.5,2.4-0.7c4-1.1,8,1,9.3,4.9c1.3,3.8-0.5,8.1-4.4,9.4c-7.7,2.7-15.3,5.3-23.1,7.7
		c-4.7,1.5-9.3-1.9-9.5-6.9c-0.2-7.7-0.1-15.3,0-23c0.1-3.6,2.5-6.3,5.9-7.1c3.2-0.7,6.3,0.9,8.1,4c0.1,0.2,0.3,0.5,0.4,0.7
		C157.6,141.7,157.8,141.7,158,141.8z"/>
</g>
</svg>
