<svg xmlns="http://www.w3.org/2000/svg" viewBox="0 0 225.43 225.39"><defs><style>.cls-1{stroke:#000;stroke-width:4px;}</style></defs><g id="Warstwa_2" data-name="Warstwa 2"><g id="Warstwa_1-2" data-name="Warstwa 1"><path class="cls-1" d="M180.12,112.87c0,11.4-.07,22.8,0,34.21a6.87,6.87,0,0,1-3.84,6.79q-30,17.17-59.9,34.55a6.43,6.43,0,0,1-7.12.09q-30.36-17.62-60.8-35.1a5.83,5.83,0,0,1-3.18-5.57q0-35.13,0-70.26A5.82,5.82,0,0,1,48.52,72q30.54-17.55,61-35.23a5.85,5.85,0,0,1,6.42,0q30.39,17.58,60.82,35.07a6.17,6.17,0,0,1,3.38,6C180.08,89.53,180.12,101.2,180.12,112.87ZM55.1,85.05c-.08,1-.13,1.45-.13,1.88,0,19,0,38.07,0,57.1,0,1.73.81,2.44,2.11,3.19q24.27,14,48.5,28c.7.4,1.43.75,2.41,1.26,0-20.15,0-39.79-.09-59.44a3.93,3.93,0,0,0-1.92-2.62Q82.88,101,59.73,87.67C58.32,86.86,56.89,86.06,55.1,85.05Zm62.41,91.38c.73-.33,1.06-.44,1.35-.61q25-14.43,50.05-28.95a4.17,4.17,0,0,0,1.56-3.12c.1-18.77.07-37.53.06-56.29,0-.66-.07-1.32-.12-2.22-.66.28-1.06.41-1.42.61q-25,14.43-50,29a3.89,3.89,0,0,0-1.38,2.92c-.09,14.82-.06,29.64-.06,44.46Zm47.85-99.74a4.39,4.39,0,0,0-.66-.62Q139.43,61.48,114.11,47a4,4,0,0,0-3.25.27C99.66,53.6,88.51,60.06,77.36,66.5L60,76.56c.59.4.94.66,1.31.88q24.93,14.4,49.83,28.83a3.08,3.08,0,0,0,3.57-.19q24.47-14.16,49-28.25C164.2,77.49,164.75,77.09,165.36,76.69Z"/><path class="cls-1" d="M2.09,44.45c0-6.14-.15-12.29,0-18.42a24.67,24.67,0,0,1,24-23.88C38.78,1.93,51.41,2.07,64,2.09c3.27,0,5.43,2,5.35,4.85s-2.22,4.69-5.56,4.69c-11.49,0-23,.36-34.47-.09-10.8-.41-18.24,7.38-17.83,17.71.42,11,.09,22.1.09,33.15,0,.7,0,1.41,0,2.1a4.88,4.88,0,0,1-4.83,4.9,4.74,4.74,0,0,1-4.71-5c-.07-6.66,0-13.33,0-20Z"/><path class="cls-1" d="M223.4,44.81c0,6.32,0,12.63,0,18.95,0,3.5-2,5.7-4.84,5.64s-4.73-2.26-4.73-5.79c0-11.75,0-23.5,0-35.25,0-10.28-6.47-16.7-16.79-16.71-11.84,0-23.68,0-35.53,0-3.6,0-6-2.51-5.34-5.57.5-2.43,2-3.94,4.56-3.95,13.42,0,26.85-.33,40.25.18,11.75.44,21.89,11.28,22.32,23.06.23,6.48,0,13,0,19.46Z"/><path class="cls-1" d="M44.59,223.37c-5.7,0-11.4,0-17.1,0C13,223.21,2.22,212.62,2.07,198.12c-.13-12.19,0-24.38,0-36.57,0-3.34,1.9-5.48,4.71-5.51s4.85,2.19,4.85,5.66c0,11.84,0,23.68,0,35.51,0,10.09,6.52,16.57,16.65,16.58,11.85,0,23.69,0,35.53,0,3.66,0,6,2.37,5.52,5.45-.41,2.56-2.27,4.08-5.26,4.09C57.58,223.39,51.08,223.37,44.59,223.37Z"/><path class="cls-1" d="M180.82,223.37c-6.31,0-12.63,0-18.94,0-3.6,0-5.76-1.76-5.83-4.65s2.21-4.9,5.87-4.91c11.76,0,23.51,0,35.26,0,10.12,0,16.62-6.5,16.64-16.6,0-11.84,0-23.68,0-35.52,0-3.18,1.48-5.12,4.1-5.56,3-.5,5.43,1.75,5.46,5.2.05,8.33,0,16.66,0,25,0,4.3.07,8.6-.07,12.89A24.83,24.83,0,0,1,199,223.32c-6,.14-12.1,0-18.16,0Z"/></g></g></svg>