<svg xmlns="http://www.w3.org/2000/svg" viewBox="0 0 220.98 220.98"><g id="Warstwa_2" data-name="Warstwa 2"><g id="Warstwa_1-2" data-name="Warstwa 1"><path d="M27.19,0H193.77a10.12,10.12,0,0,0,1.39.43,30.89,30.89,0,0,1,25.77,30.21q.09,79.82,0,159.63a30.76,30.76,0,0,1-30.66,30.66q-79.82.1-159.63,0A30.9,30.9,0,0,1,1,197.9c-.36-1.37-.68-2.75-1-4.13V27.19A8.24,8.24,0,0,0,.41,26C2.4,15.24,8.33,7.42,18.26,2.82,21.07,1.52,24.2.92,27.19,0Zm180,110.7V32.39c0-11.42-7.15-18.58-18.57-18.58H32.39C21,13.81,13.81,21,13.81,32.37v156.2c0,11.43,7.14,18.58,18.56,18.58h156.2c11.41,0,18.58-7.16,18.58-18.57Z"/><path d="M63.83,167,79.46,166c2.51-.18,5-.43,7.53-.54a6.91,6.91,0,0,1,7.27,6.45,6.74,6.74,0,0,1-6.37,7.28q-20.53,1.53-41.07,2.92c-5.16.35-8.27-2.85-7.92-8.09q1.38-20.33,2.89-40.64c.31-4.22,3.51-7,7.46-6.62s6.58,3.66,6.27,7.84q-.75,10.32-1.49,20.64c0,.49,0,1,0,1.86.76-.72,1.33-1.21,1.86-1.73q19.83-19.83,39.64-39.66c1.9-1.91,4.06-3,6.78-2.37a6.84,6.84,0,0,1,3.9,11.14,24.28,24.28,0,0,1-1.79,1.87l-39,39C65,165.77,64.56,166.24,63.83,167Z"/><path d="M156.65,54c-7.3.51-14.6,1-21.9,1.55-5.11.39-8.81-3.41-7.93-8.21a6.71,6.71,0,0,1,6.32-5.5c7.53-.58,15.05-1.1,22.58-1.64,6.24-.44,12.48-.92,18.72-1.28,3.84-.22,6.74,1.92,7.5,5.41a9.2,9.2,0,0,1,.13,2.57q-1.42,20.43-2.91,40.86a6.79,6.79,0,0,1-7.36,6.54,7,7,0,0,1-6.37-7.76c.52-7.38,1-14.76,1.62-22.7-.87.81-1.41,1.29-1.93,1.8q-19.76,19.75-39.49,39.51c-2,2-4.25,3.16-7.16,2.47a6.85,6.85,0,0,1-3.83-10.92,18.86,18.86,0,0,1,1.63-1.72q19.44-19.45,38.9-38.88a16.65,16.65,0,0,1,1.89-1.42Z"/></g></g></svg>